<svg id="Camada_1" data-name="Camada 1" xmlns="http://www.w3.org/2000/svg" xmlns:xlink="http://www.w3.org/1999/xlink" viewBox="0 0 224.9 63.05"><defs><style>.cls-1,.cls-6,.cls-8{fill:none;}.cls-2{clip-path:url(#clip-path);}.cls-3{clip-path:url(#clip-path-2);}.cls-4{fill:#fff;}.cls-5,.cls-7{font-size:7.8px;}.cls-5{font-family:CourierNewPSMT, Courier New;}.cls-6,.cls-8{stroke:#000;stroke-width:0.65px;}.cls-6{stroke-linecap:round;stroke-linejoin:round;}.cls-7{font-family:TimesNewRomanPSMT, Times New Roman;}.cls-8{stroke-miterlimit:10;}</style><clipPath id="clip-path" transform="translate(-0.16 0)"><rect class="cls-1" x="-101.26" y="-331.38" width="612" height="792"/></clipPath><clipPath id="clip-path-2" transform="translate(-0.16 0)"><rect class="cls-1" x="0.16" width="224.57" height="63.05"/></clipPath></defs><title>L22_001</title><g class="cls-2"><g class="cls-3"><rect class="cls-4" width="224.9" height="63.05"/><text class="cls-5" transform="translate(6.5 15.28)">?- D = [2, 3].</text><text class="cls-5" transform="translate(6.5 33.48)">?- E = [1|D].</text><text class="cls-5" transform="translate(6.5 51.68)">?- F = [1,2,3].</text><rect class="cls-4" x="157.3" y="7.48" width="12.19" height="11.7"/><rect class="cls-6" x="157.3" y="7.48" width="12.19" height="11.7"/><text class="cls-7" transform="translate(161.12 15.6)">2</text><text class="cls-5" transform="translate(102.05 14.95)">D</text><text class="cls-5" transform="translate(102.05 33.48)">E</text><text class="cls-5" transform="translate(102.05 52)">F</text><rect class="cls-4" x="190.13" y="7.48" width="12.19" height="11.7"/><rect class="cls-6" x="190.13" y="7.48" width="12.19" height="11.7"/><text class="cls-7" transform="translate(193.94 15.6)">3</text><rect class="cls-4" x="129.35" y="26" width="12.19" height="11.7"/><rect class="cls-6" x="129.35" y="26" width="12.19" height="11.7"/><text class="cls-7" transform="translate(133.17 34.12)">1</text><rect class="cls-4" x="157.3" y="44.52" width="12.19" height="11.7"/><rect class="cls-6" x="157.3" y="44.52" width="12.19" height="11.7"/><text class="cls-7" transform="translate(161.12 52.65)">2</text><rect class="cls-4" x="190.13" y="44.52" width="12.19" height="11.7"/><rect class="cls-6" x="190.13" y="44.52" width="12.19" height="11.7"/><text class="cls-7" transform="translate(193.94 52.65)">3</text><rect class="cls-4" x="129.35" y="44.52" width="12.19" height="11.7"/><rect class="cls-6" x="129.35" y="44.52" width="12.19" height="11.7"/><text class="cls-7" transform="translate(133.17 52.65)">1</text><line class="cls-6" x1="108.22" y1="13.32" x2="153.46" y2="13.32"/><polygon points="156.06 13.32 153.47 12.35 153.47 14.3 156.06 13.32"/><polygon class="cls-8" points="156.06 13.32 153.47 12.35 153.47 14.3 156.06 13.32"/><line class="cls-6" x1="169.49" y1="13.32" x2="186.29" y2="13.32"/><polygon points="188.89 13.32 186.29 12.35 186.29 14.3 188.89 13.32"/><polygon class="cls-8" points="188.89 13.32 186.29 12.35 186.29 14.3 188.89 13.32"/><line class="cls-6" x1="108.22" y1="31.85" x2="125.51" y2="31.85"/><polygon points="128.12 31.85 125.52 30.88 125.52 32.83 128.12 31.85"/><polygon class="cls-8" points="128.12 31.85 125.52 30.88 125.52 32.83 128.12 31.85"/><line class="cls-6" x1="141.54" y1="27.81" x2="154.1" y2="19.48"/><polygon points="156.27 18.05 153.56 18.67 154.64 20.3 156.27 18.05"/><polygon class="cls-8" points="156.27 18.05 153.56 18.67 154.64 20.3 156.27 18.05"/><line class="cls-6" x1="108.22" y1="50.38" x2="125.51" y2="50.38"/><polygon points="128.12 50.38 125.52 49.4 125.52 51.35 128.12 50.38"/><polygon class="cls-8" points="128.12 50.38 125.52 49.4 125.52 51.35 128.12 50.38"/><line class="cls-6" x1="141.54" y1="50.38" x2="153.46" y2="50.38"/><polygon points="156.06 50.38 153.47 49.4 153.47 51.35 156.06 50.38"/><polygon class="cls-8" points="156.06 50.38 153.47 49.4 153.47 51.35 156.06 50.38"/><line class="cls-6" x1="169.49" y1="50.38" x2="186.29" y2="50.38"/><polygon points="188.89 50.38 186.29 49.4 186.29 51.35 188.89 50.38"/><polygon class="cls-8" points="188.89 50.38 186.29 49.4 186.29 51.35 188.89 50.38"/><line class="cls-6" x1="202.31" y1="13.32" x2="215.8" y2="13.32"/><line class="cls-8" x1="215.8" y1="10.73" x2="215.8" y2="15.92"/><line class="cls-6" x1="202.31" y1="50.38" x2="216.12" y2="50.38"/><line class="cls-8" x1="216.12" y1="47.77" x2="216.12" y2="52.97"/></g></g></svg>