<svg id="Camada_1" data-name="Camada 1" xmlns="http://www.w3.org/2000/svg" xmlns:xlink="http://www.w3.org/1999/xlink" viewBox="0 0 318.6 107.1"><defs><style>.cls-1,.cls-5{fill:none;}.cls-2{clip-path:url(#clip-path);}.cls-3{fill:#fff;}.cls-4{font-size:10.8px;}.cls-4,.cls-7{font-family:CourierNewPSMT, Courier New;}.cls-5{stroke:#000;stroke-linecap:round;stroke-linejoin:round;stroke-width:0.9px;}.cls-6,.cls-7{font-size:9px;}.cls-6{font-family:TimesNewRomanPSMT, Times New Roman;}</style><clipPath id="clip-path" transform="translate(0 0)"><rect class="cls-1" width="318.6" height="107.1"/></clipPath></defs><title>L23_001</title><g class="cls-2"><rect class="cls-3" width="318.6" height="107.1"/><text class="cls-4" transform="translate(13.95 18.45)">edge(a, b).</text><text class="cls-4" transform="translate(13.95 31.05)">edge(a, c).</text><text class="cls-4" transform="translate(13.95 43.65)">edge(b, c).</text><text class="cls-4" transform="translate(13.95 56.25)">edge(a, d).</text><text class="cls-4" transform="translate(13.95 68.85)">edge(b, e).</text><text class="cls-4" transform="translate(13.95 81.45)">edge(d, e).</text><text class="cls-4" transform="translate(13.95 94.05)">edge(a, e).</text><text class="cls-4" transform="translate(167.85 55.58)">a</text><text class="cls-4" transform="translate(224.55 55.35)">b</text><text class="cls-4" transform="translate(167.85 90.45)">c</text><text class="cls-4" transform="translate(110.7 20.7)">d</text><text class="cls-4" transform="translate(167.85 20.7)">e</text><line class="cls-5" x1="180.9" y1="53.29" x2="220.5" y2="53.13"/><line class="cls-5" x1="220.5" y1="58.39" x2="180.9" y2="82.91"/><line class="cls-5" x1="172.35" y1="81.9" x2="172.35" y2="59.63"/><line class="cls-5" x1="163.8" y1="48.11" x2="123.75" y2="23.67"/><line class="cls-5" x1="220.5" y1="47.87" x2="180.9" y2="23.67"/><line class="cls-5" x1="163.8" y1="18.45" x2="123.75" y2="18.45"/><line class="cls-5" x1="172.35" y1="47.02" x2="172.35" y2="24.75"/><text class="cls-6" transform="translate(265.05 19.35)">Cliques:</text><text class="cls-7" transform="translate(265.05 38.25)">a, b, c</text><text class="cls-7" transform="translate(265.05 58.05)">a, b, e</text><text class="cls-7" transform="translate(265.05 77.85)">a, e, d</text></g></svg>